<svg width="240" height="240" xmlns="http://www.w3.org/2000/svg"><defs><linearGradient x1="50.007%" y1="99.839%" x2="50.007%" y2=".339%" id="a"><stop stop-color="#006ad4" stop-opacity=".5" offset="0%"/><stop stop-color="#006ad4" stop-opacity=".2" offset="100%"/></linearGradient><linearGradient x1="50.035%" y1="-.079%" x2="50.035%" y2="99.929%" id="b"><stop stop-color="#006ad4" offset="0%"/><stop stop-color="#006ad4" stop-opacity=".5" offset="100%"/></linearGradient></defs><g fill="none" fill-rule="evenodd"><rect width="240" height="240" rx="12"/><g transform="translate(24 24)" fill-rule="nonzero"><path d="m192 191.774-67.621-89.901 48.997-67.087-33.921-26.202-69.395 93.74 60.748 80.64c4.213 5.648 10.642 8.81 17.737 8.81H192Z" fill="url(#a)"/><ellipse fill="#006ad4" cx="156.527" cy="21.685" rx="21.284" ry="21.685"/><path d="M124.379 101.873 61.413 18.296c-4.212-5.647-10.642-8.809-17.736-8.809H0l69.838 92.838L3.77 192h43.012c7.094 0 13.524-3.388 17.736-9.035l59.862-81.092Z" fill="url(#b)"/></g></g></svg>